<svg width="24" height="24" viewBox="0 0 24 24" fill="none" xmlns="http://www.w3.org/2000/svg">
<mask id="mask0_1087_2574" style="mask-type:alpha" maskUnits="userSpaceOnUse" x="0" y="0" width="24" height="24">
<rect width="24" height="24" fill="#D9D9D9"/>
</mask>
<g mask="url(#mask0_1087_2574)">
<path d="M6 19.0496L7.975 18.2496C7.80833 17.7663 7.65417 17.2746 7.5125 16.7746C7.37083 16.2746 7.25833 15.7746 7.175 15.2746L6 16.0746V19.0496ZM10 17.9996H14C14.3 17.3329 14.5417 16.5204 14.725 15.5621C14.9083 14.6038 15 13.6246 15 12.6246C15 10.9746 14.725 9.41211 14.175 7.93711C13.625 6.46211 12.9 5.32461 12 4.52461C11.1 5.32461 10.375 6.46211 9.825 7.93711C9.275 9.41211 9 10.9746 9 12.6246C9 13.6246 9.09167 14.6038 9.275 15.5621C9.45833 16.5204 9.7 17.3329 10 17.9996ZM12 12.9996C11.45 12.9996 10.9792 12.8038 10.5875 12.4121C10.1958 12.0204 10 11.5496 10 10.9996C10 10.4496 10.1958 9.97878 10.5875 9.58711C10.9792 9.19544 11.45 8.99961 12 8.99961C12.55 8.99961 13.0208 9.19544 13.4125 9.58711C13.8042 9.97878 14 10.4496 14 10.9996C14 11.5496 13.8042 12.0204 13.4125 12.4121C13.0208 12.8038 12.55 12.9996 12 12.9996ZM18 19.0496V16.0746L16.825 15.2746C16.7417 15.7746 16.6292 16.2746 16.4875 16.7746C16.3458 17.2746 16.1917 17.7663 16.025 18.2496L18 19.0496ZM12 1.97461C13.65 3.17461 14.8958 4.69961 15.7375 6.54961C16.5792 8.39961 17 10.5496 17 12.9996L19.1 14.3996C19.3833 14.5829 19.6042 14.8246 19.7625 15.1246C19.9208 15.4246 20 15.7413 20 16.0746V21.9996L15.025 19.9996H8.975L4 21.9996V16.0746C4 15.7413 4.07917 15.4246 4.2375 15.1246C4.39583 14.8246 4.61667 14.5829 4.9 14.3996L7 12.9996C7 10.5496 7.42083 8.39961 8.2625 6.54961C9.10417 4.69961 10.35 3.17461 12 1.97461Z" fill="#121212"/>
</g>
</svg>
