<svg width="48" height="48" viewBox="0 0 48 48" fill="none" xmlns="http://www.w3.org/2000/svg">
<mask id="mask0_1087_2658" style="mask-type:alpha" maskUnits="userSpaceOnUse" x="0" y="0" width="48" height="48">
<rect width="48" height="48" fill="#D9D9D9"/>
</mask>
<g mask="url(#mask0_1087_2658)">
<path d="M18 28C18 23 19.75 18.75 23.25 15.25C26.75 11.75 31 10 36 10V14C32.1 14 28.7917 15.3583 26.075 18.075C23.3583 20.7917 22 24.1 22 28H18ZM26 28C26 25.2333 26.975 22.875 28.925 20.925C30.875 18.975 33.2333 18 36 18V22C34.3333 22 32.9167 22.5833 31.75 23.75C30.5833 24.9167 30 26.3333 30 28H26ZM10 12C8.9 12 7.95833 11.6083 7.175 10.825C6.39167 10.0417 6 9.1 6 8C6 6.9 6.39167 5.95833 7.175 5.175C7.95833 4.39167 8.9 4 10 4C11.1 4 12.0417 4.39167 12.825 5.175C13.6083 5.95833 14 6.9 14 8C14 9.1 13.6083 10.0417 12.825 10.825C12.0417 11.6083 11.1 12 10 12ZM4 22V17C4 16.1667 4.29167 15.4583 4.875 14.875C5.45833 14.2917 6.16667 14 7 14H13C14.5 14 15.7917 13.525 16.875 12.575C17.9583 11.625 18.6333 10.4333 18.9 9H22.9C22.7 11 21.9667 12.7667 20.7 14.3C19.4333 15.8333 17.8667 16.9 16 17.5V22H4ZM38 34C36.9 34 35.9583 33.6083 35.175 32.825C34.3917 32.0417 34 31.1 34 30C34 28.9 34.3917 27.9583 35.175 27.175C35.9583 26.3917 36.9 26 38 26C39.1 26 40.0417 26.3917 40.825 27.175C41.6083 27.9583 42 28.9 42 30C42 31.1 41.6083 32.0417 40.825 32.825C40.0417 33.6083 39.1 34 38 34ZM32 44V39.5C30.1333 38.9 28.5667 37.8333 27.3 36.3C26.0333 34.7667 25.3 33 25.1 31H29.1C29.3667 32.4333 30.0417 33.625 31.125 34.575C32.2083 35.525 33.5 36 35 36H41C41.8333 36 42.5417 36.2917 43.125 36.875C43.7083 37.4583 44 38.1667 44 39V44H32Z" fill="#AD4D1A"/>
</g>
</svg>
