<svg width="48" height="48" viewBox="0 0 48 48" fill="none" xmlns="http://www.w3.org/2000/svg">
<mask id="mask0_1087_2657" style="mask-type:alpha" maskUnits="userSpaceOnUse" x="0" y="0" width="48" height="48">
<rect width="48" height="48" fill="#D9D9D9"/>
</mask>
<g mask="url(#mask0_1087_2657)">
<path d="M8 42V23.25L4.4 26L2 22.8L8 18.2V12H12V15.15L24 6L46 22.8L43.6 25.95L40 23.25V42H8ZM12 38H22V30H26V38H36V20.2L24 11.05L12 20.2V38ZM8 10C8 8.33333 8.58333 6.91667 9.75 5.75C10.9167 4.58333 12.3333 4 14 4C14.5667 4 15.0417 3.80833 15.425 3.425C15.8083 3.04167 16 2.56667 16 2H20C20 3.66667 19.4167 5.08333 18.25 6.25C17.0833 7.41667 15.6667 8 14 8C13.4333 8 12.9583 8.19167 12.575 8.575C12.1917 8.95833 12 9.43333 12 10H8Z" fill="#AD4D1A"/>
</g>
</svg>
