<svg width="48" height="48" viewBox="0 0 48 48" fill="none" xmlns="http://www.w3.org/2000/svg">
<mask id="mask0_1098_5735" style="mask-type:alpha" maskUnits="userSpaceOnUse" x="0" y="0" width="48" height="48">
<rect width="48" height="48" fill="#D9D9D9"/>
</mask>
<g mask="url(#mask0_1098_5735)">
<path d="M10.4 41.9998C9.16667 41.9998 8.125 41.5748 7.275 40.7248C6.425 39.8748 6 38.8331 6 37.5998V10.1998C6 9.2331 6.45 8.5581 7.35 8.17476C8.25 7.79143 9.03333 7.9331 9.7 8.59976L14.2 13.0998L11.5 15.7998L12.9 17.1998L15.6 14.4998L20.8 19.6998L18.1 22.3998L19.5 23.7998L22.2 21.0998L27.4 26.2998L24.7 28.9998L26.1 30.3998L28.8 27.6998L34 32.8998L31.3 35.5998L32.7 36.9998L35.4 34.2998L39.4 38.2998C40.0667 38.9664 40.2083 39.7498 39.825 40.6498C39.4417 41.5498 38.7667 41.9998 37.8 41.9998H10.4ZM12 35.9998H28.6L12 19.3998V35.9998Z" fill="#AD4D1A"/>
</g>
</svg>
