<svg width="48" height="48" viewBox="0 0 48 48" fill="none" xmlns="http://www.w3.org/2000/svg">
<mask id="mask0_1087_2659" style="mask-type:alpha" maskUnits="userSpaceOnUse" x="0" y="0" width="48" height="48">
<rect width="48" height="48" fill="#D9D9D9"/>
</mask>
<g mask="url(#mask0_1087_2659)">
<path d="M18 42H10C8.9 42 7.95833 41.6083 7.175 40.825C6.39167 40.0417 6 39.1 6 38V24C6 21.5 6.475 19.1583 7.425 16.975C8.375 14.7917 9.65833 12.8917 11.275 11.275C12.8917 9.65833 14.7917 8.375 16.975 7.425C19.1583 6.475 21.5 6 24 6C26.5 6 28.8417 6.475 31.025 7.425C33.2083 8.375 35.1083 9.65833 36.725 11.275C38.3417 12.8917 39.625 14.7917 40.575 16.975C41.525 19.1583 42 21.5 42 24V38C42 39.1 41.6083 40.0417 40.825 40.825C40.0417 41.6083 39.1 42 38 42H30V26H38V24C38 20.1 36.6417 16.7917 33.925 14.075C31.2083 11.3583 27.9 10 24 10C20.1 10 16.7917 11.3583 14.075 14.075C11.3583 16.7917 10 20.1 10 24V26H18V42ZM14 30H10V38H14V30ZM34 30V38H38V30H34Z" fill="#AD4D1A"/>
</g>
</svg>
