<svg width="48" height="48" viewBox="0 0 48 48" fill="none" xmlns="http://www.w3.org/2000/svg">
<mask id="mask0_1087_2660" style="mask-type:alpha" maskUnits="userSpaceOnUse" x="0" y="0" width="48" height="48">
<rect width="48" height="48" fill="#D9D9D9"/>
</mask>
<g mask="url(#mask0_1087_2660)">
<path d="M14 4H34V19.7C34 20.4667 33.8333 21.15 33.5 21.75C33.1667 22.35 32.7 22.8333 32.1 23.2L25 27.4L26.4 32H34L27.8 36.4L30.2 44L24 39.3L17.8 44L20.2 36.4L14 32H21.6L23 27.4L15.9 23.2C15.3 22.8333 14.8333 22.35 14.5 21.75C14.1667 21.15 14 20.4667 14 19.7V4ZM18 8V19.7L22 22.1V8H18ZM30 8H26V22.1L30 19.7V8Z" fill="#AD4D1A"/>
</g>
</svg>
