<svg width="48" height="48" viewBox="0 0 48 48" fill="none" xmlns="http://www.w3.org/2000/svg">
<mask id="mask0_1087_2655" style="mask-type:alpha" maskUnits="userSpaceOnUse" x="0" y="0" width="48" height="48">
<rect width="48" height="48" fill="#D9D9D9"/>
</mask>
<g mask="url(#mask0_1087_2655)">
<path d="M10 42C8.9 42 7.95833 41.6083 7.175 40.825C6.39167 40.0417 6 39.1 6 38V10C6 8.9 6.39167 7.95833 7.175 7.175C7.95833 6.39167 8.9 6 10 6H38C39.1 6 40.0417 6.39167 40.825 7.175C41.6083 7.95833 42 8.9 42 10V38C42 39.1 41.6083 40.0417 40.825 40.825C40.0417 41.6083 39.1 42 38 42H10ZM10 38H38V32H32C31 33.2667 29.8083 34.25 28.425 34.95C27.0417 35.65 25.5667 36 24 36C22.4333 36 20.9583 35.65 19.575 34.95C18.1917 34.25 17 33.2667 16 32H10V38ZM24 32C25.2667 32 26.4167 31.6333 27.45 30.9C28.4833 30.1667 29.2 29.2 29.6 28H38V10H10V28H18.4C18.8 29.2 19.5167 30.1667 20.55 30.9C21.5833 31.6333 22.7333 32 24 32ZM24 28L16 20L18.8 17.1L22 20.3V12H26V20.3L29.2 17.1L32 20L24 28Z" fill="#AD4D1A"/>
</g>
</svg>
