<svg width="48" height="48" viewBox="0 0 48 48" fill="none" xmlns="http://www.w3.org/2000/svg">
<mask id="mask0_1087_2661" style="mask-type:alpha" maskUnits="userSpaceOnUse" x="0" y="0" width="48" height="48">
<rect width="48" height="48" fill="#D9D9D9"/>
</mask>
<g mask="url(#mask0_1087_2661)">
<path d="M30 42C28.9 42 27.9583 41.6083 27.175 40.825C26.3917 40.0417 26 39.1 26 38V10C26 8.9 26.3917 7.95833 27.175 7.175C27.9583 6.39167 28.9 6 30 6H38C39.1 6 40.0417 6.39167 40.825 7.175C41.6083 7.95833 42 8.9 42 10V38C42 39.1 41.6083 40.0417 40.825 40.825C40.0417 41.6083 39.1 42 38 42H30ZM30 10V38H38V10H30ZM10 42C8.9 42 7.95833 41.6083 7.175 40.825C6.39167 40.0417 6 39.1 6 38V10C6 8.9 6.39167 7.95833 7.175 7.175C7.95833 6.39167 8.9 6 10 6H18C19.1 6 20.0417 6.39167 20.825 7.175C21.6083 7.95833 22 8.9 22 10V38C22 39.1 21.6083 40.0417 20.825 40.825C20.0417 41.6083 19.1 42 18 42H10ZM10 10V38H18V10H10Z" fill="#AD4D1A"/>
</g>
</svg>
