<svg width="24" height="24" viewBox="0 0 24 24" fill="none" xmlns="http://www.w3.org/2000/svg">
<mask id="mask0_1087_2575" style="mask-type:alpha" maskUnits="userSpaceOnUse" x="0" y="0" width="24" height="24">
<rect width="24" height="24" fill="#D9D9D9"/>
</mask>
<g mask="url(#mask0_1087_2575)">
<path d="M4.99921 21C4.14921 21 3.54504 20.6208 3.18671 19.8625C2.82837 19.1042 2.91587 18.4 3.44921 17.75L8.99921 11V5H7.99921C7.71587 5 7.47837 4.90417 7.28671 4.7125C7.09504 4.52083 6.99921 4.28333 6.99921 4C6.99921 3.71667 7.09504 3.47917 7.28671 3.2875C7.47837 3.09583 7.71587 3 7.99921 3H15.9992C16.2825 3 16.52 3.09583 16.7117 3.2875C16.9034 3.47917 16.9992 3.71667 16.9992 4C16.9992 4.28333 16.9034 4.52083 16.7117 4.7125C16.52 4.90417 16.2825 5 15.9992 5H14.9992V11L20.5492 17.75C21.0825 18.4 21.17 19.1042 20.8117 19.8625C20.4534 20.6208 19.8492 21 18.9992 21H4.99921ZM4.99921 19H18.9992L12.9992 11.7V5H10.9992V11.7L4.99921 19Z" fill="#121212"/>
</g>
</svg>
