<svg width="40" height="40" viewBox="0 0 40 40" fill="none" xmlns="http://www.w3.org/2000/svg">
<mask id="mask0_1087_2652" style="mask-type:alpha" maskUnits="userSpaceOnUse" x="0" y="0" width="40" height="40">
<rect width="40" height="40" fill="#D9D9D9"/>
</mask>
<g mask="url(#mask0_1087_2652)">
<path d="M18.3333 35H8.33333C7.41667 35 6.63194 34.6736 5.97917 34.0208C5.32639 33.3681 5 32.5833 5 31.6667V8.33333C5 7.41667 5.32639 6.63194 5.97917 5.97917C6.63194 5.32639 7.41667 5 8.33333 5H18.3333V35ZM15 31.6667V8.33333H8.33333V31.6667H15ZM21.6667 18.3333V5H31.6667C32.5833 5 33.3681 5.32639 34.0208 5.97917C34.6736 6.63194 35 7.41667 35 8.33333V18.3333H21.6667ZM25 15H31.6667V8.33333H25V15ZM21.6667 35V21.6667H35V31.6667C35 32.5833 34.6736 33.3681 34.0208 34.0208C33.3681 34.6736 32.5833 35 31.6667 35H21.6667ZM25 31.6667H31.6667V25H25V31.6667Z" fill="#F37103"/>
</g>
</svg>
