<svg width="40" height="40" viewBox="0 0 40 40" fill="none" xmlns="http://www.w3.org/2000/svg">
<mask id="mask0_1087_2645" style="mask-type:alpha" maskUnits="userSpaceOnUse" x="0" y="0" width="40" height="40">
<rect width="40" height="40" fill="#D9D9D9"/>
</mask>
<g mask="url(#mask0_1087_2645)">
<path d="M15.0007 23.334C15.0007 19.1673 16.459 15.6257 19.3757 12.709C22.2923 9.79232 25.834 8.33398 30.0007 8.33398V11.6673C26.7507 11.6673 23.9937 12.7993 21.7298 15.0632C19.4659 17.327 18.334 20.084 18.334 23.334H15.0007ZM21.6673 23.334C21.6673 21.0284 22.4798 19.0632 24.1048 17.4382C25.7298 15.8132 27.6951 15.0007 30.0007 15.0007V18.334C28.6118 18.334 27.4312 18.8201 26.459 19.7923C25.4868 20.7645 25.0007 21.9451 25.0007 23.334H21.6673ZM8.33398 10.0007C7.41732 10.0007 6.6326 9.67426 5.97982 9.02148C5.32704 8.36871 5.00065 7.58398 5.00065 6.66732C5.00065 5.75065 5.32704 4.96593 5.97982 4.31315C6.6326 3.66037 7.41732 3.33398 8.33398 3.33398C9.25065 3.33398 10.0354 3.66037 10.6882 4.31315C11.3409 4.96593 11.6673 5.75065 11.6673 6.66732C11.6673 7.58398 11.3409 8.36871 10.6882 9.02148C10.0354 9.67426 9.25065 10.0007 8.33398 10.0007ZM3.33398 18.334V14.1673C3.33398 13.4729 3.57704 12.8826 4.06315 12.3965C4.54926 11.9104 5.13954 11.6673 5.83398 11.6673H10.834C12.084 11.6673 13.1604 11.2715 14.0632 10.4798C14.9659 9.68815 15.5284 8.6951 15.7507 7.50065H19.084C18.9173 9.16732 18.3062 10.6395 17.2507 11.9173C16.1951 13.1951 14.8895 14.084 13.334 14.584V18.334H3.33398ZM31.6673 28.334C30.7507 28.334 29.9659 28.0076 29.3132 27.3548C28.6604 26.702 28.334 25.9173 28.334 25.0007C28.334 24.084 28.6604 23.2993 29.3132 22.6465C29.9659 21.9937 30.7507 21.6673 31.6673 21.6673C32.584 21.6673 33.3687 21.9937 34.0215 22.6465C34.6743 23.2993 35.0007 24.084 35.0007 25.0007C35.0007 25.9173 34.6743 26.702 34.0215 27.3548C33.3687 28.0076 32.584 28.334 31.6673 28.334ZM26.6673 36.6673V32.9173C25.1118 32.4173 23.8062 31.5284 22.7507 30.2507C21.6951 28.9729 21.084 27.5007 20.9173 25.834H24.2507C24.4729 27.0284 25.0354 28.0215 25.9382 28.8132C26.8409 29.6048 27.9173 30.0007 29.1673 30.0007H34.1673C34.8618 30.0007 35.452 30.2437 35.9381 30.7298C36.4243 31.2159 36.6673 31.8062 36.6673 32.5007V36.6673H26.6673Z" fill="#F37103"/>
</g>
</svg>
