<svg width="40" height="40" viewBox="0 0 40 40" fill="none" xmlns="http://www.w3.org/2000/svg">
<mask id="mask0_1087_2644" style="mask-type:alpha" maskUnits="userSpaceOnUse" x="0" y="0" width="40" height="40">
<rect width="40" height="40" fill="#D9D9D9"/>
</mask>
<g mask="url(#mask0_1087_2644)">
<path d="M6.66602 34.9993V19.3743L3.66602 21.666L1.66602 18.9993L6.66602 15.166V9.99935H9.99935V12.6243L19.9993 4.99935L38.3327 18.9993L36.3327 21.6243L33.3327 19.3743V34.9993H6.66602ZM9.99935 31.666H18.3327V24.9993H21.666V31.666H29.9993V16.8327L19.9993 9.20768L9.99935 16.8327V31.666ZM6.66602 8.33268C6.66602 6.94379 7.15213 5.76324 8.12435 4.79102C9.09657 3.81879 10.2771 3.33268 11.666 3.33268C12.1382 3.33268 12.5341 3.17296 12.8535 2.85352C13.173 2.53407 13.3327 2.13824 13.3327 1.66602H16.666C16.666 3.0549 16.1799 4.23546 15.2077 5.20768C14.2355 6.1799 13.0549 6.66602 11.666 6.66602C11.1938 6.66602 10.798 6.82574 10.4785 7.14518C10.1591 7.46463 9.99935 7.86046 9.99935 8.33268H6.66602Z" fill="#F37103"/>
</g>
</svg>
