<svg width="40" height="40" viewBox="0 0 40 40" fill="none" xmlns="http://www.w3.org/2000/svg">
<mask id="mask0_1105_8156" style="mask-type:alpha" maskUnits="userSpaceOnUse" x="0" y="0" width="40" height="40">
<rect width="40" height="40" fill="#D9D9D9"/>
</mask>
<g mask="url(#mask0_1105_8156)">
<path d="M20.0007 36.6673C17.7229 36.6673 15.5701 36.2298 13.5423 35.3548C11.5145 34.4798 9.74371 33.2854 8.22982 31.7715C6.71593 30.2576 5.52148 28.4868 4.64648 26.459C3.77148 24.4312 3.33398 22.2784 3.33398 20.0007C3.33398 17.6951 3.77148 15.5354 4.64648 13.5215C5.52148 11.5076 6.71593 9.74371 8.22982 8.22982C9.74371 6.71593 11.5145 5.52148 13.5423 4.64648C15.5701 3.77148 17.7229 3.33398 20.0007 3.33398C22.3062 3.33398 24.4659 3.77148 26.4798 4.64648C28.4937 5.52148 30.2576 6.71593 31.7715 8.22982C33.2854 9.74371 34.4798 11.5076 35.3548 13.5215C36.2298 15.5354 36.6673 17.6951 36.6673 20.0007C36.6673 22.2784 36.2298 24.4312 35.3548 26.459C34.4798 28.4868 33.2854 30.2576 31.7715 31.7715C30.2576 33.2854 28.4937 34.4798 26.4798 35.3548C24.4659 36.2298 22.3062 36.6673 20.0007 36.6673ZM20.0007 33.2507C20.7229 32.2507 21.3479 31.209 21.8757 30.1257C22.4034 29.0423 22.834 27.8895 23.1673 26.6673H16.834C17.1673 27.8895 17.5979 29.0423 18.1257 30.1257C18.6534 31.209 19.2784 32.2507 20.0007 33.2507ZM15.6673 32.584C15.1673 31.6673 14.7298 30.7159 14.3548 29.7298C13.9798 28.7437 13.6673 27.7229 13.4173 26.6673H8.50065C9.30621 28.0562 10.3132 29.2645 11.5215 30.2923C12.7298 31.3201 14.1118 32.084 15.6673 32.584ZM24.334 32.584C25.8895 32.084 27.2715 31.3201 28.4798 30.2923C29.6882 29.2645 30.6951 28.0562 31.5007 26.6673H26.584C26.334 27.7229 26.0215 28.7437 25.6465 29.7298C25.2715 30.7159 24.834 31.6673 24.334 32.584ZM7.08398 23.334H12.7507C12.6673 22.7784 12.6048 22.2298 12.5632 21.6882C12.5215 21.1465 12.5007 20.584 12.5007 20.0007C12.5007 19.4173 12.5215 18.8548 12.5632 18.3132C12.6048 17.7715 12.6673 17.2229 12.7507 16.6673H7.08398C6.9451 17.2229 6.84093 17.7715 6.77148 18.3132C6.70204 18.8548 6.66732 19.4173 6.66732 20.0007C6.66732 20.584 6.70204 21.1465 6.77148 21.6882C6.84093 22.2298 6.9451 22.7784 7.08398 23.334ZM16.084 23.334H23.9173C24.0007 22.7784 24.0632 22.2298 24.1048 21.6882C24.1465 21.1465 24.1673 20.584 24.1673 20.0007C24.1673 19.4173 24.1465 18.8548 24.1048 18.3132C24.0632 17.7715 24.0007 17.2229 23.9173 16.6673H16.084C16.0007 17.2229 15.9382 17.7715 15.8965 18.3132C15.8548 18.8548 15.834 19.4173 15.834 20.0007C15.834 20.584 15.8548 21.1465 15.8965 21.6882C15.9382 22.2298 16.0007 22.7784 16.084 23.334ZM27.2507 23.334H32.9173C33.0562 22.7784 33.1604 22.2298 33.2298 21.6882C33.2993 21.1465 33.334 20.584 33.334 20.0007C33.334 19.4173 33.2993 18.8548 33.2298 18.3132C33.1604 17.7715 33.0562 17.2229 32.9173 16.6673H27.2507C27.334 17.2229 27.3965 17.7715 27.4382 18.3132C27.4798 18.8548 27.5007 19.4173 27.5007 20.0007C27.5007 20.584 27.4798 21.1465 27.4382 21.6882C27.3965 22.2298 27.334 22.7784 27.2507 23.334ZM26.584 13.334H31.5007C30.6951 11.9451 29.6882 10.7368 28.4798 9.70898C27.2715 8.68121 25.8895 7.91732 24.334 7.41732C24.834 8.33398 25.2715 9.28537 25.6465 10.2715C26.0215 11.2576 26.334 12.2784 26.584 13.334ZM16.834 13.334H23.1673C22.834 12.1118 22.4034 10.959 21.8757 9.87565C21.3479 8.79232 20.7229 7.75065 20.0007 6.75065C19.2784 7.75065 18.6534 8.79232 18.1257 9.87565C17.5979 10.959 17.1673 12.1118 16.834 13.334ZM8.50065 13.334H13.4173C13.6673 12.2784 13.9798 11.2576 14.3548 10.2715C14.7298 9.28537 15.1673 8.33398 15.6673 7.41732C14.1118 7.91732 12.7298 8.68121 11.5215 9.70898C10.3132 10.7368 9.30621 11.9451 8.50065 13.334Z" fill="#F37103"/>
</g>
</svg>
