<svg width="40" height="40" viewBox="0 0 40 40" fill="none" xmlns="http://www.w3.org/2000/svg">
<mask id="mask0_1098_5700" style="mask-type:alpha" maskUnits="userSpaceOnUse" x="0" y="0" width="40" height="40">
<rect width="40" height="40" fill="#D9D9D9"/>
</mask>
<g mask="url(#mask0_1098_5700)">
<path d="M16.6667 38.3327V34.9994H8.33333C7.41667 34.9994 6.63194 34.673 5.97917 34.0202C5.32639 33.3674 5 32.5827 5 31.666V8.33268C5 7.41602 5.32639 6.63129 5.97917 5.97852C6.63194 5.32574 7.41667 4.99935 8.33333 4.99935H16.6667V1.66602H20V38.3327H16.6667ZM8.33333 29.9993H16.6667V19.9993L8.33333 29.9993ZM23.3333 34.9994V19.9993L31.6667 29.9993V8.33268H23.3333V4.99935H31.6667C32.5833 4.99935 33.3681 5.32574 34.0208 5.97852C34.6736 6.63129 35 7.41602 35 8.33268V31.666C35 32.5827 34.6736 33.3674 34.0208 34.0202C33.3681 34.673 32.5833 34.9994 31.6667 34.9994H23.3333Z" fill="#F37103"/>
</g>
</svg>
