<svg width="40" height="40" viewBox="0 0 40 40" fill="none" xmlns="http://www.w3.org/2000/svg">
<mask id="mask0_1098_5734" style="mask-type:alpha" maskUnits="userSpaceOnUse" x="0" y="0" width="40" height="40">
<rect width="40" height="40" fill="#D9D9D9"/>
</mask>
<g mask="url(#mask0_1098_5734)">
<path d="M8.66667 34.9992C7.63889 34.9992 6.77083 34.645 6.0625 33.9367C5.35417 33.2283 5 32.3603 5 31.3325V8.49915C5 7.6936 5.375 7.1311 6.125 6.81165C6.875 6.49221 7.52778 6.61026 8.08333 7.16582L11.8333 10.9158L9.58333 13.1658L10.75 14.3325L13 12.0825L17.3333 16.4158L15.0833 18.6658L16.25 19.8325L18.5 17.5825L22.8333 21.9158L20.5833 24.1658L21.75 25.3325L24 23.0825L28.3333 27.4158L26.0833 29.6658L27.25 30.8325L29.5 28.5825L32.8333 31.9158C33.3889 32.4714 33.5069 33.1242 33.1875 33.8742C32.8681 34.6242 32.3056 34.9992 31.5 34.9992H8.66667ZM10 29.9992H23.8333L10 16.1658V29.9992Z" fill="#F37103"/>
</g>
</svg>
