<svg width="40" height="40" viewBox="0 0 40 40" fill="none" xmlns="http://www.w3.org/2000/svg">
<mask id="mask0_1087_2649" style="mask-type:alpha" maskUnits="userSpaceOnUse" x="0" y="0" width="40" height="40">
<rect width="40" height="40" fill="#D9D9D9"/>
</mask>
<g mask="url(#mask0_1087_2649)">
<path d="M20.0007 36.6673L12.9173 29.584L15.2923 27.209L18.334 30.2507V21.6673L9.79232 21.6257L12.834 24.6673L10.4173 27.084L3.33398 20.0007L10.3757 12.959L12.7507 15.334L9.75065 18.334H18.334V9.75065L15.2923 12.7923L12.9173 10.4173L20.0007 3.33398L27.084 10.4173L24.709 12.7923L21.6673 9.75065V18.334L30.209 18.3757L27.1673 15.334L29.584 12.9173L36.6673 20.0007L29.584 27.084L27.209 24.709L30.2507 21.6673H21.6673L21.6257 30.209L24.6673 27.1673L27.084 29.584L20.0007 36.6673Z" fill="#F37103"/>
</g>
</svg>
