<svg width="40" height="40" viewBox="0 0 40 40" fill="none" xmlns="http://www.w3.org/2000/svg">
<mask id="mask0_1087_2650" style="mask-type:alpha" maskUnits="userSpaceOnUse" x="0" y="0" width="40" height="40">
<rect width="40" height="40" fill="#D9D9D9"/>
</mask>
<g mask="url(#mask0_1087_2650)">
<path d="M23.3327 16.4993V13.666C24.2493 13.2771 25.1868 12.9855 26.1452 12.791C27.1035 12.5966 28.1105 12.4993 29.166 12.4993C29.8882 12.4993 30.5966 12.5549 31.291 12.666C31.9855 12.7771 32.666 12.916 33.3327 13.0827V15.7493C32.666 15.4993 31.9924 15.3118 31.3119 15.1868C30.6313 15.0618 29.916 14.9993 29.166 14.9993C28.1105 14.9993 27.0966 15.1313 26.1243 15.3952C25.1521 15.6591 24.2216 16.0271 23.3327 16.4993ZM23.3327 25.666V22.8327C24.2493 22.4438 25.1868 22.1521 26.1452 21.9577C27.1035 21.7632 28.1105 21.666 29.166 21.666C29.8882 21.666 30.5966 21.7216 31.291 21.8327C31.9855 21.9438 32.666 22.0827 33.3327 22.2493V24.916C32.666 24.666 31.9924 24.4785 31.3119 24.3535C30.6313 24.2285 29.916 24.166 29.166 24.166C28.1105 24.166 27.0966 24.291 26.1243 24.541C25.1521 24.791 24.2216 25.166 23.3327 25.666ZM23.3327 21.0827V18.2493C24.2493 17.8605 25.1868 17.5688 26.1452 17.3743C27.1035 17.1799 28.1105 17.0827 29.166 17.0827C29.8882 17.0827 30.5966 17.1382 31.291 17.2493C31.9855 17.3605 32.666 17.4993 33.3327 17.666V20.3327C32.666 20.0827 31.9924 19.8952 31.3119 19.7702C30.6313 19.6452 29.916 19.5827 29.166 19.5827C28.1105 19.5827 27.0966 19.7146 26.1243 19.9785C25.1521 20.2424 24.2216 20.6105 23.3327 21.0827ZM10.8327 26.666C12.1382 26.666 13.4091 26.8118 14.6452 27.1035C15.8813 27.3952 17.1105 27.8327 18.3327 28.416V11.9993C17.1938 11.3327 15.9855 10.8327 14.7077 10.4993C13.4299 10.166 12.1382 9.99935 10.8327 9.99935C9.83268 9.99935 8.83963 10.0966 7.85352 10.291C6.8674 10.4855 5.91602 10.7771 4.99935 11.166V27.666C5.97157 27.3327 6.93685 27.0827 7.89518 26.916C8.85352 26.7493 9.83268 26.666 10.8327 26.666ZM21.666 28.416C22.8882 27.8327 24.1174 27.3952 25.3535 27.1035C26.5896 26.8118 27.8605 26.666 29.166 26.666C30.166 26.666 31.1452 26.7493 32.1035 26.916C33.0619 27.0827 34.0271 27.3327 34.9994 27.666V11.166C34.0827 10.7771 33.1313 10.4855 32.1452 10.291C31.1591 10.0966 30.166 9.99935 29.166 9.99935C27.8605 9.99935 26.5688 10.166 25.291 10.4993C24.0132 10.8327 22.8049 11.3327 21.666 11.9993V28.416ZM19.9993 33.3327C18.666 32.2771 17.2216 31.4577 15.666 30.8743C14.1105 30.291 12.4993 29.9993 10.8327 29.9993C9.66602 29.9993 8.52018 30.1521 7.39518 30.4577C6.27018 30.7632 5.19379 31.1938 4.16602 31.7493C3.58268 32.0549 3.02018 32.041 2.47852 31.7077C1.93685 31.3743 1.66602 30.8882 1.66602 30.2493V10.166C1.66602 9.86046 1.7424 9.56879 1.89518 9.29102C2.04796 9.01324 2.27713 8.8049 2.58268 8.66602C3.86046 7.99935 5.19379 7.49935 6.58268 7.16602C7.97157 6.83268 9.38824 6.66602 10.8327 6.66602C12.4438 6.66602 14.0202 6.87435 15.5619 7.29102C17.1035 7.70768 18.5827 8.33268 19.9993 9.16602C21.416 8.33268 22.8952 7.70768 24.4369 7.29102C25.9785 6.87435 27.5549 6.66602 29.166 6.66602C30.6105 6.66602 32.0271 6.83268 33.416 7.16602C34.8049 7.49935 36.1382 7.99935 37.416 8.66602C37.7216 8.8049 37.9507 9.01324 38.1035 9.29102C38.2563 9.56879 38.3327 9.86046 38.3327 10.166V30.2493C38.3327 30.8882 38.0619 31.3743 37.5202 31.7077C36.9785 32.041 36.416 32.0549 35.8327 31.7493C34.8049 31.1938 33.7285 30.7632 32.6035 30.4577C31.4785 30.1521 30.3327 29.9993 29.166 29.9993C27.4993 29.9993 25.8882 30.291 24.3327 30.8743C22.7771 31.4577 21.3327 32.2771 19.9993 33.3327Z" fill="#F37103"/>
</g>
</svg>
