<svg width="40" height="40" viewBox="0 0 40 40" fill="none" xmlns="http://www.w3.org/2000/svg">
<mask id="mask0_1087_2647" style="mask-type:alpha" maskUnits="userSpaceOnUse" x="0" y="0" width="40" height="40">
<rect width="40" height="40" fill="#D9D9D9"/>
</mask>
<g mask="url(#mask0_1087_2647)">
<path d="M11.666 3.33398H28.3327V16.4173C28.3327 17.0562 28.1938 17.6257 27.916 18.1257C27.6382 18.6257 27.2493 19.0284 26.7493 19.334L20.8327 22.834L21.9993 26.6673H28.3327L23.166 30.334L25.166 36.6673L19.9993 32.7507L14.8327 36.6673L16.8327 30.334L11.666 26.6673H17.9993L19.166 22.834L13.2493 19.334C12.7493 19.0284 12.3605 18.6257 12.0827 18.1257C11.8049 17.6257 11.666 17.0562 11.666 16.4173V3.33398ZM14.9993 6.66732V16.4173L18.3327 18.4173V6.66732H14.9993ZM24.9993 6.66732H21.666V18.4173L24.9993 16.4173V6.66732Z" fill="#F37103"/>
</g>
</svg>
