<svg width="18" height="34" viewBox="0 0 18 34" fill="none" xmlns="http://www.w3.org/2000/svg">
<path d="M0.666016 0.332031H17.3327V13.4154C17.3327 14.0543 17.1938 14.6237 16.916 15.1237C16.6382 15.6237 16.2493 16.0265 15.7493 16.332L9.83268 19.832L10.9993 23.6654H17.3327L12.166 27.332L14.166 33.6654L8.99935 29.7487L3.83268 33.6654L5.83268 27.332L0.666016 23.6654H6.99935L8.16602 19.832L2.24935 16.332C1.74935 16.0265 1.36046 15.6237 1.08268 15.1237C0.804905 14.6237 0.666016 14.0543 0.666016 13.4154V0.332031ZM3.99935 3.66536V13.4154L7.33268 15.4154V3.66536H3.99935ZM13.9993 3.66536H10.666V15.4154L13.9993 13.4154V3.66536Z" fill="url(#paint0_linear_1271_1113)"/>
<defs>
<linearGradient id="paint0_linear_1271_1113" x1="0.5" y1="1" x2="16" y2="33.5" gradientUnits="userSpaceOnUse">
<stop stop-color="#AFAC92"/>
<stop offset="0.401042" stop-color="#F4F2D8"/>
<stop offset="0.442708" stop-color="#D9D6BE"/>
<stop offset="0.8125" stop-color="#86836D"/>
</linearGradient>
</defs>
</svg>
