<svg width="40" height="40" viewBox="0 0 40 40" fill="none" xmlns="http://www.w3.org/2000/svg">
<mask id="mask0_1087_2642" style="mask-type:alpha" maskUnits="userSpaceOnUse" x="0" y="0" width="40" height="40">
<rect width="40" height="40" fill="#D9D9D9"/>
</mask>
<g mask="url(#mask0_1087_2642)">
<path d="M8.33333 35C7.41667 35 6.63194 34.6736 5.97917 34.0208C5.32639 33.3681 5 32.5833 5 31.6667V8.33333C5 7.41667 5.32639 6.63194 5.97917 5.97917C6.63194 5.32639 7.41667 5 8.33333 5H31.6667C32.5833 5 33.3681 5.32639 34.0208 5.97917C34.6736 6.63194 35 7.41667 35 8.33333V31.6667C35 32.5833 34.6736 33.3681 34.0208 34.0208C33.3681 34.6736 32.5833 35 31.6667 35H8.33333ZM8.33333 31.6667H31.6667V26.6667H26.6667C25.8333 27.7222 24.8403 28.5417 23.6875 29.125C22.5347 29.7083 21.3056 30 20 30C18.6944 30 17.4653 29.7083 16.3125 29.125C15.1597 28.5417 14.1667 27.7222 13.3333 26.6667H8.33333V31.6667ZM20 26.6667C21.0556 26.6667 22.0139 26.3611 22.875 25.75C23.7361 25.1389 24.3333 24.3333 24.6667 23.3333H31.6667V8.33333H8.33333V23.3333H15.3333C15.6667 24.3333 16.2639 25.1389 17.125 25.75C17.9861 26.3611 18.9444 26.6667 20 26.6667ZM20 23.3333L13.3333 16.6667L15.6667 14.25L18.3333 16.9167V10H21.6667V16.9167L24.3333 14.25L26.6667 16.6667L20 23.3333Z" fill="#F37103"/>
</g>
</svg>
