<svg width="40" height="40" viewBox="0 0 40 40" fill="none" xmlns="http://www.w3.org/2000/svg">
<mask id="mask0_1087_2648" style="mask-type:alpha" maskUnits="userSpaceOnUse" x="0" y="0" width="40" height="40">
<rect width="40" height="40" fill="#D9D9D9"/>
</mask>
<g mask="url(#mask0_1087_2648)">
<path d="M25 35C24.0833 35 23.2986 34.6736 22.6458 34.0208C21.9931 33.3681 21.6667 32.5833 21.6667 31.6667V8.33333C21.6667 7.41667 21.9931 6.63194 22.6458 5.97917C23.2986 5.32639 24.0833 5 25 5H31.6667C32.5833 5 33.3681 5.32639 34.0208 5.97917C34.6736 6.63194 35 7.41667 35 8.33333V31.6667C35 32.5833 34.6736 33.3681 34.0208 34.0208C33.3681 34.6736 32.5833 35 31.6667 35H25ZM25 8.33333V31.6667H31.6667V8.33333H25ZM8.33333 35C7.41667 35 6.63194 34.6736 5.97917 34.0208C5.32639 33.3681 5 32.5833 5 31.6667V8.33333C5 7.41667 5.32639 6.63194 5.97917 5.97917C6.63194 5.32639 7.41667 5 8.33333 5H15C15.9167 5 16.7014 5.32639 17.3542 5.97917C18.0069 6.63194 18.3333 7.41667 18.3333 8.33333V31.6667C18.3333 32.5833 18.0069 33.3681 17.3542 34.0208C16.7014 34.6736 15.9167 35 15 35H8.33333ZM8.33333 8.33333V31.6667H15V8.33333H8.33333Z" fill="#F37103"/>
</g>
</svg>
